#N canvas 64 160 668 456 12;
#X obj 62 -6 inlet;
#X msg 38 81 \; r-danca11 1 \; r-danca12 0 \; r-danca13 0 \;;
#X msg 151 84 \; r-danca11 0 \; r-danca12 1 \; r-danca13 0 \;;
#X msg 400 111 \; r-danca11 0 \; r-danca12 0 \; r-danca13 1 \;;
#X obj 62 22 sel 1 2 3 4 5 6 7 8 9 10 11 12;
#X msg 39 165 \; r-danca21 1 \; r-danca22 0 \; r-danca23 0 \;;
#X msg 152 168 \; r-danca21 0 \; r-danca22 1 \; r-danca23 0 \;;
#X msg 402 190 \; r-danca21 0 \; r-danca22 0 \; r-danca23 1 \;;
#X msg 76 246 \; r-danca31 1 \; r-danca32 0 \; r-danca33 0 \;;
#X msg 189 249 \; r-danca31 0 \; r-danca32 1 \; r-danca33 0 \;;
#X msg 400 270 \; r-danca31 0 \; r-danca32 0 \; r-danca33 1 \;;
#X msg 161 349 \; r-danca41 1 \; r-danca42 0 \; r-danca43 0 \;;
#X msg 274 352 \; r-danca41 0 \; r-danca42 1 \; r-danca43 0 \;;
#X msg 391 355 \; r-danca41 0 \; r-danca42 0 \; r-danca43 1 \;;
#X floatatom 129 -1 5 0 0 0 - - -;
#X obj 461 34 outlet;
#N canvas 168 199 549 367 osc-dance 1;
#X obj 275 154 packOSC;
#X obj 103 259 outlet;
#X obj 146 161 packOSC;
#X obj 10 162 packOSC;
#X obj -122 160 packOSC;
#X obj -122 16 r s-dance11;
#X obj -123 63 r s-dance12;
#X obj -123 105 r s-dance13;
#X obj 8 20 r s-dance21;
#X obj 7 67 r s-dance22;
#X obj 7 109 r s-dance23;
#X obj 145 6 r s-dance31;
#X obj 144 53 r s-dance32;
#X obj 275 10 r s-dance41;
#X obj 274 57 r s-dance42;
#X obj 274 99 r s-dance43;
#X msg -121 37 send /dance 11;
#X msg -122 84 send /dance 12;
#X msg -122 126 send /dance 13;
#X msg 9 41 send /dance 21;
#X msg 8 88 send /dance 22;
#X msg 8 130 send /dance 23;
#X msg 146 27 send /dance 31;
#X msg 145 74 send /dance 32;
#X msg 146 118 send /dance 33;
#X obj 144 95 r s-dance33;
#X msg 276 31 send /dance 41;
#X msg 275 78 send /dance 42;
#X msg 275 120 send /dance 43;
#X connect 0 0 1 0;
#X connect 2 0 1 0;
#X connect 3 0 1 0;
#X connect 4 0 1 0;
#X connect 5 0 16 0;
#X connect 6 0 17 0;
#X connect 7 0 18 0;
#X connect 8 0 19 0;
#X connect 9 0 20 0;
#X connect 10 0 21 0;
#X connect 11 0 22 0;
#X connect 12 0 23 0;
#X connect 13 0 26 0;
#X connect 14 0 27 0;
#X connect 15 0 28 0;
#X connect 16 0 4 0;
#X connect 17 0 4 0;
#X connect 18 0 4 0;
#X connect 19 0 3 0;
#X connect 20 0 3 0;
#X connect 21 0 3 0;
#X connect 22 0 2 0;
#X connect 23 0 2 0;
#X connect 24 0 2 0;
#X connect 25 0 24 0;
#X connect 26 0 0 0;
#X connect 27 0 0 0;
#X connect 28 0 0 0;
#X restore 462 5 pd osc-dance;
#X connect 0 0 4 0;
#X connect 0 0 14 0;
#X connect 4 0 1 0;
#X connect 4 1 2 0;
#X connect 4 2 3 0;
#X connect 4 3 5 0;
#X connect 4 4 6 0;
#X connect 4 5 7 0;
#X connect 4 6 8 0;
#X connect 4 7 9 0;
#X connect 4 8 10 0;
#X connect 4 9 11 0;
#X connect 4 10 12 0;
#X connect 4 11 13 0;
#X connect 16 0 15 0;
