#N canvas 0 23 1280 715 12;
#X obj 457 593 inlet;
#X obj 627 86 cnv 15 435 500 empty empty empty 30 25 0 14 -228856 -66577
0;
#X obj 981 510 tgl 70 0 empty empty PLAY 5 34 0 25 -191407 -4160 -4160
1 1;
#X obj 656 104 cnv 15 10 10 empty empty JARDIM_DAS_CARTAS 20 12 0 25
-233017 -4160 0;
#X obj 656 118 cnv 15 10 10 empty empty +++++++++++++++++ 20 12 0 25
-228856 -4160 0;
#X obj 658 139 cnv 15 10 10 empty empty (c)2021_carta@todocanto 20
12 0 12 -228856 -4160 0;
#X obj 659 155 cnv 15 10 10 empty empty Jônatas_Manzolli 20 12 0 12
-228856 -4160 0;
#X obj 627 286 cnv 15 435 45 empty empty DANCE 5 10 0 18 -203904 -4160
0;
#X obj 646 312 tgl 25 0 s-danca11 r-danca11 1 5 14 0 16 -59583 -262144
-262144 0 1;
#X obj 679 313 tgl 25 0 s-danca12 r-danca12 2 5 14 0 16 -59583 -262144
-262144 0 1;
#X obj 711 313 tgl 25 0 s-danca13 r-danca13 3 5 14 0 16 -59583 -262144
-262144 0 1;
#X obj 751 314 tgl 25 0 s-danca21 r-danca21 1 5 14 0 16 -260097 -262144
-262144 0 1;
#X obj 784 315 tgl 25 0 s-danca22 r-danca22 2 5 14 0 16 -260097 -262144
-262144 1 1;
#X obj 816 315 tgl 25 0 s-danca23 r-danca23 3 5 14 0 16 -260097 -262144
-262144 0 1;
#X obj 854 313 tgl 25 0 s-danca31 r-danca31 1 5 14 0 16 -51457 -262144
-262144 0 1;
#X obj 887 314 tgl 25 0 s-danca32 r-danca32 2 5 14 0 16 -51457 -262144
-262144 1 1;
#X obj 919 314 tgl 25 0 s-danca33 r-danca33 3 5 14 0 16 -51457 -262144
-262144 0 1;
#X obj 960 313 tgl 25 0 s-danca41 r-danca41 1 5 14 0 16 -258113 -262144
-262144 0 1;
#X obj 993 314 tgl 25 0 s-danca42 r-danca42 2 5 14 0 16 -258113 -262144
-262144 0 1;
#X obj 1025 314 tgl 25 0 s-danca43 r-danca43 3 5 14 0 16 -258113 -262144
-262144 1 1;
#X obj 628 360 cnv 15 435 45 empty empty READING 5 10 0 18 -232576
-159808 0;
#X obj 645 389 tgl 25 0 s-read11 r-read11 1 5 14 0 16 -59583 -262144
-262144 0 1;
#X obj 678 390 tgl 25 0 s-read12 r-read12 2 5 14 0 16 -59583 -262144
-262144 0 1;
#X obj 710 390 tgl 25 0 s-read13 r-read13 3 5 14 0 16 -59583 -262144
-262144 1 1;
#X obj 750 389 tgl 25 0 s-read21 r-read21 1 5 14 0 16 -260097 -262144
-262144 0 1;
#X obj 783 390 tgl 25 0 s-read22 r-read22 2 5 14 0 16 -260097 -262144
-262144 1 1;
#X obj 815 390 tgl 25 0 s-read23 r-read23 3 5 14 0 16 -260097 -262144
-262144 0 1;
#X obj 852 388 tgl 25 0 s-read31 r-read31 1 5 14 0 16 -51457 -262144
-262144 0 1;
#X obj 885 389 tgl 25 0 s-read32 r-read32 2 5 14 0 16 -51457 -262144
-262144 1 1;
#X obj 917 389 tgl 25 0 s-read33 r-read33 3 5 14 0 16 -51457 -262144
-262144 0 1;
#X obj 961 386 tgl 25 0 s-read41 r-read41 1 5 14 0 16 -258113 -262144
-262144 1 1;
#X obj 994 387 tgl 25 0 s-read42 r-read42 2 5 14 0 16 -258113 -262144
-262144 0 1;
#X obj 1026 387 tgl 25 0 s-read43 r-read43 3 5 14 0 16 -258113 -262144
-262144 0 1;
#X obj 628 438 cnv 15 435 45 empty empty TEXT 5 10 0 18 -203904 -4160
0;
#X obj 645 466 tgl 25 0 s-texto11 r-texto11 1 5 14 0 16 -59583 -262144
-262144 1 1;
#X obj 678 467 tgl 25 0 s-texto12 r-texto12 2 5 14 0 16 -59583 -262144
-262144 0 1;
#X obj 710 467 tgl 25 0 s-texto13 r-texto13 3 5 14 0 16 -59583 -262144
-262144 0 1;
#X obj 750 466 tgl 25 0 s-texto21 r-texto21 1 5 14 0 16 -260097 -262144
-262144 0 1;
#X obj 783 467 tgl 25 0 s-texto22 r-texto22 2 5 14 0 16 -260097 -262144
-262144 1 1;
#X obj 815 467 tgl 25 0 s-texto23 r-texto23 3 5 14 0 16 -260097 -262144
-262144 0 1;
#X obj 852 465 tgl 25 0 s-texto31 r-texto31 1 5 14 0 16 -51457 -262144
-262144 0 1;
#X obj 885 466 tgl 25 0 s-texto32 r-texto32 2 5 14 0 16 -51457 -262144
-262144 1 1;
#X obj 917 466 tgl 25 0 s-texto33 r-texto33 3 5 14 0 16 -51457 -262144
-262144 0 1;
#X obj 961 463 tgl 25 0 s-texto41 r-texto41 1 5 14 0 16 -258113 -262144
-262144 0 1;
#X obj 994 464 tgl 25 0 s-texto42 r-texto42 2 5 14 0 16 -258113 -262144
-262144 0 1;
#X obj 1026 464 tgl 25 0 s-texto43 r-texto43 3 5 14 0 16 -258113 -262144
-262144 1 1;
#X obj 627 189 cnv 15 435 65 empty empty POEMA 5 10 0 16 -203904 -4160
0;
#X obj 651 216 tgl 60 0 s-poema1 r-poema1 1 10 30 0 60 -88512 -262144
-262144 0 1;
#X obj 753 215 tgl 60 0 s-poema2 r-poema2 2 10 30 0 60 -260097 -262144
-262144 1 1;
#X obj 866 216 tgl 60 0 s-poema3 r-poema3 3 10 30 0 60 -47554 -262144
-262144 0 1;
#X obj 972 216 tgl 60 0 s-poema4 r-poema4 4 10 30 0 60 -258113 -262144
-262144 0 1;
#N canvas 31 110 767 399 controla-poemas-soundscape 0;
#X obj 38 -7 inlet;
#X obj 37 42 sel 1 2 3 4;
#X msg 38 81 \; r-poema1 1 \; r-poema2 0 \; r-poema3 0 \; r-poema4
0 \;;
#X msg 143 82 \; r-poema1 0 \; r-poema2 1 \; r-poema3 0 \; r-poema4
0 \;;
#X msg 251 84 \; r-poema1 0 \; r-poema2 0 \; r-poema3 1 \; r-poema4
0 \;;
#X msg 356 85 \; r-poema1 0 \; r-poema2 0 \; r-poema3 0 \; r-poema4
1 \;;
#X obj 211 189 random 24;
#X obj 212 224 / 24;
#X msg 213 246 \; r-slider-read \$1 \;;
#X obj 373 199 random 24;
#X obj 374 234 / 24;
#X msg 375 256 \; r-slider-dance \$1 \;;
#X obj 541 193 random 24;
#X obj 546 223 / 24;
#X obj 39 18 t f b b b b;
#X msg 549 265 \; r-slider-text \$1 \;;
#X connect 0 0 14 0;
#X connect 1 0 2 0;
#X connect 1 1 3 0;
#X connect 1 2 4 0;
#X connect 1 3 5 0;
#X connect 6 0 7 0;
#X connect 7 0 8 0;
#X connect 9 0 10 0;
#X connect 10 0 11 0;
#X connect 12 0 13 0;
#X connect 13 0 15 0;
#X connect 14 0 1 0;
#X connect 14 2 6 0;
#X connect 14 3 9 0;
#X connect 14 4 12 0;
#X restore 1103 603 pd controla-poemas-soundscape;
#X obj 636 678 udpsend;
#X msg 722 591 disconnect;
#X symbolatom 633 537 15 0 0 2 video_IP - -;
#X msg 636 643 connect \$1 \$2;
#X obj 721 561 bng 20 250 50 0 empty empty disconnect -10 10 2 13 -258113
-262144 -1;
#X obj 634 618 pack s f;
#X obj 687 593 f;
#X obj 633 561 nbx 6 20 1000 100000 0 0 empty r-porta-ip empty 0 -8
0 12 -262144 -1 -1 1000 256;
#X obj 633 591 t a b;
#X msg 721 616 symbol;
#X msg 812 660 connect 192.168.01.26 9999;
#X obj 811 635 loadbang;
#N canvas 118 73 451 361 reset-all 0;
#X obj 36 11 r off-all;
#X msg 33 74 \; r-danca11 0 \; r-danca12 0 \; r-danca13 0 \;;
#X msg 32 139 \; r-danca21 0 \; r-danca22 0 \; r-danca23 0 \;;
#X msg 30 207 \; r-danca31 0 \; r-danca32 0 \; r-danca33 0 \;;
#X msg 30 271 \; r-danca41 0 \; r-danca42 0 \; r-danca43 0 \;;
#X msg 137 77 \; r-read11 0 \; r-read12 0 \; r-read13 0 \;;
#X msg 135 143 \; r-read21 0 \; r-read22 0 \; r-read23 0 \;;
#X msg 136 209 \; r-read31 0 \; r-read32 0 \; r-read33 0 \;;
#X msg 135 274 \; r-read41 0 \; r-read42 0 \; r-read43 0 \;;
#X msg 236 77 \; r-texto11 0 \; r-texto12 0 \; r-texto13 0 \;;
#X msg 235 144 \; r-texto21 0 \; r-texto22 0 \; r-texto23 0 \;;
#X msg 234 211 \; r-texto31 0 \; r-texto32 0 \; r-texto33 0 \;;
#X msg 234 274 \; r-texto41 0 \; r-texto42 0 \; r-texto43 0 \;;
#X obj 35 43 sel 0;
#X obj 151 16 loadbang;
#X msg 152 38 0;
#X msg 347 81 \; r-poema1 0 \; r-poema2 0 \; r-poema3 0 \; r-poema4
0 \;;
#X obj 152 -7 inlet;
#X connect 0 0 13 0;
#X connect 13 0 1 0;
#X connect 13 0 2 0;
#X connect 13 0 3 0;
#X connect 13 0 4 0;
#X connect 13 0 5 0;
#X connect 13 0 6 0;
#X connect 13 0 7 0;
#X connect 13 0 8 0;
#X connect 13 0 9 0;
#X connect 13 0 10 0;
#X connect 13 0 11 0;
#X connect 13 0 12 0;
#X connect 13 0 16 0;
#X connect 14 0 15 0;
#X connect 15 0 13 0;
#X connect 17 0 15 0;
#X restore 930 601 pd reset-all;
#X obj 929 536 bng 40 250 50 0 empty empty RESET 3 20 0 12 -258113
-262144 -262144;
#N canvas 96 127 517 455 controle-camadas 0;
#X obj 96 385 outlet;
#N canvas 43 63 477 298 interface-elementos 0;
#X obj 41 15 r s-poema1;
#X obj 141 18 r s-poema2;
#X obj 242 20 r s-poema3;
#X obj 342 22 r s-poema4;
#X obj 43 95 outlet;
#X obj 141 96 outlet;
#X obj 243 97 outlet;
#X obj 341 98 outlet;
#X connect 0 0 4 0;
#X connect 1 0 5 0;
#X connect 2 0 6 0;
#X connect 3 0 7 0;
#X restore 96 17 pd interface-elementos;
#X obj 96 119 controla-dance;
#X obj 96 343 controla-texto;
#X obj 99 221 controla-read;
#X obj 317 15 r s-slider-dance;
#X obj 313 228 r s-slider-text;
#X obj 320 122 r s-slider-read;
#X obj 95 39 markov-elementos 0 5000 25000;
#X obj 95 60 markov-elementos 3 5000 25000;
#X obj 96 81 markov-elementos 6 5000 25000;
#X obj 97 100 markov-elementos 9 5000 25000;
#X obj 96 143 markov-elementos 0 1000 15000;
#X obj 96 165 markov-elementos 3 1000 15000;
#X obj 97 185 markov-elementos 6 1000 15000;
#X obj 99 202 markov-elementos 9 1000 15000;
#X obj 97 251 markov-elementos 0 1000 5000;
#X obj 98 273 markov-elementos 3 1000 5000;
#X obj 98 296 markov-elementos 6 1000 5000;
#X obj 97 320 markov-elementos 9 1000 5000;
#X connect 1 0 8 0;
#X connect 1 0 12 0;
#X connect 1 0 16 0;
#X connect 1 1 9 0;
#X connect 1 1 13 0;
#X connect 1 1 17 0;
#X connect 1 2 10 0;
#X connect 1 2 14 0;
#X connect 1 2 18 0;
#X connect 1 3 11 0;
#X connect 1 3 15 0;
#X connect 1 3 19 0;
#X connect 2 0 0 0;
#X connect 3 0 0 0;
#X connect 4 0 0 0;
#X connect 5 0 8 1;
#X connect 5 0 9 1;
#X connect 5 0 10 1;
#X connect 5 0 11 1;
#X connect 6 0 16 1;
#X connect 6 0 17 1;
#X connect 6 0 18 1;
#X connect 6 0 19 1;
#X connect 7 0 12 1;
#X connect 7 0 13 1;
#X connect 7 0 14 1;
#X connect 7 0 15 1;
#X connect 9 0 2 0;
#X connect 10 0 2 0;
#X connect 11 0 2 0;
#X connect 12 0 4 0;
#X connect 13 0 4 0;
#X connect 14 0 4 0;
#X connect 15 0 4 0;
#X connect 16 0 3 0;
#X connect 17 0 3 0;
#X connect 18 0 3 0;
#X connect 19 0 3 0;
#X restore 457 659 pd controle-camadas;
#N canvas 89 48 523 413 receive-network 0;
#X obj 2 6 inlet;
#X obj 20 69 send r-poema1;
#X obj 18 91 send r-poema2;
#X obj 18 118 send r-poema3;
#X obj 16 140 send r-poema4;
#N canvas 2 23 605 383 network-dance 0;
#X obj 29 9 inlet;
#X obj 28 71 s r-danca11;
#X obj 27 95 s r-danca12;
#X obj 26 120 s r-danca13;
#X obj 22 175 s r-danca21;
#X obj 20 207 s r-danca22;
#X obj 20 239 s r-danca23;
#X obj 313 63 s r-danca31;
#X obj 312 87 s r-danca32;
#X obj 311 112 s r-danca33;
#X obj 311 171 s r-danca41;
#X obj 310 195 s r-danca42;
#X obj 309 220 s r-danca43;
#X obj 29 42 route /dance/11 /dance/12 /dance/13;
#X obj 24 146 route /dance/21 /dance/22 /dance/23;
#X obj 313 27 route /dance/31 /dance/32 /dance/33;
#X obj 311 144 route /dance/41 /dance/42 /dance/43;
#X connect 0 0 13 0;
#X connect 0 0 14 0;
#X connect 0 0 15 0;
#X connect 0 0 16 0;
#X connect 13 0 1 0;
#X connect 13 1 2 0;
#X connect 13 2 3 0;
#X connect 14 0 4 0;
#X connect 14 1 5 0;
#X connect 14 2 6 0;
#X connect 15 0 7 0;
#X connect 15 1 8 0;
#X connect 15 2 9 0;
#X connect 16 0 10 0;
#X connect 16 1 11 0;
#X connect 16 2 12 0;
#X restore 4 181 pd network-dance;
#N canvas 0 23 559 337 network-read 0;
#X obj 29 5 inlet;
#X obj 29 42 route /read/11 /read/12 /read/13;
#X obj 28 71 s r-read11;
#X obj 27 95 s r-read12;
#X obj 26 120 s r-read13;
#X obj 24 146 route /read/21 /read/22 /read/23;
#X obj 22 175 s r-read21;
#X obj 20 207 s r-read22;
#X obj 20 239 s r-read23;
#X obj 313 27 route /read/31 /read/32 /read/33;
#X obj 313 63 s r-read31;
#X obj 312 87 s r-read32;
#X obj 311 112 s r-read33;
#X obj 311 144 route /read/41 /read/42 /read/43;
#X obj 311 171 s r-read41;
#X obj 310 195 s r-read42;
#X obj 309 220 s r-read43;
#X connect 0 0 1 0;
#X connect 0 0 5 0;
#X connect 0 0 9 0;
#X connect 0 0 13 0;
#X connect 1 0 2 0;
#X connect 1 1 3 0;
#X connect 1 2 4 0;
#X connect 5 0 6 0;
#X connect 5 1 7 0;
#X connect 5 2 8 0;
#X connect 9 0 10 0;
#X connect 9 1 11 0;
#X connect 9 2 12 0;
#X connect 13 0 14 0;
#X connect 13 1 15 0;
#X connect 13 2 16 0;
#X restore 5 213 pd network-read;
#N canvas 0 23 585 368 network-text 0;
#X obj 28 6 inlet;
#X obj 29 42 route /text/11 /text/12 /text/13;
#X obj 24 146 route /text/21 /text/22 /text/23;
#X obj 313 27 route /text/31 /text/32 /text/33;
#X obj 311 144 route /text/41 /text/42 /text/43;
#X obj 28 71 s r-texto11;
#X obj 27 95 s r-texto12;
#X obj 26 120 s r-texto13;
#X obj 22 175 s r-texto21;
#X obj 20 207 s r-texto22;
#X obj 20 239 s r-texto23;
#X obj 313 63 s r-texto31;
#X obj 312 87 s r-texto32;
#X obj 311 112 s r-texto33;
#X obj 311 171 s r-texto41;
#X obj 310 195 s r-texto42;
#X obj 309 220 s r-texto43;
#X connect 0 0 1 0;
#X connect 0 0 2 0;
#X connect 0 0 3 0;
#X connect 0 0 4 0;
#X connect 1 0 5 0;
#X connect 1 1 6 0;
#X connect 1 2 7 0;
#X connect 2 0 8 0;
#X connect 2 1 9 0;
#X connect 2 2 10 0;
#X connect 3 0 11 0;
#X connect 3 1 12 0;
#X connect 3 2 13 0;
#X connect 4 0 14 0;
#X connect 4 1 15 0;
#X connect 4 2 16 0;
#X restore 4 244 pd network-text;
#X msg 339 153 \; r-soundscape \$1 \;;
#X obj 337 96 random 24;
#X obj 338 131 / 24;
#X obj 336 55 sel 1;
#X obj 5 32 route /poema1 /poema2 /poema3 /poema4 /reset;
#X obj 250 129 s off-all;
#X connect 0 0 5 0;
#X connect 0 0 6 0;
#X connect 0 0 7 0;
#X connect 0 0 12 0;
#X connect 9 0 10 0;
#X connect 10 0 8 0;
#X connect 11 0 9 0;
#X connect 12 0 1 0;
#X connect 12 0 11 0;
#X connect 12 1 2 0;
#X connect 12 1 11 0;
#X connect 12 2 3 0;
#X connect 12 2 11 0;
#X connect 12 3 4 0;
#X connect 12 3 11 0;
#X connect 12 4 13 0;
#X restore 457 625 pd receive-network;
#X obj 755 293 hsl 190 15 0 1 0 0 s-slider-dance r-slider-dance dance-duration
12 7 0 10 -232576 -4160 -4160 3937 1;
#X obj 753 445 hsl 190 15 0 1 0 0 s-slider-text r-slider-text text-duration
10 7 0 10 -232576 -4160 -4160 6300 1;
#X obj 753 369 hsl 190 15 0 1 0 0 s-slider-read r-slider-read read-duration
10 7 0 10 -203904 -4160 -4160 4725 1;
#N canvas 0 23 450 300 init-program 0;
#X obj 88 14 loadbang;
#X msg 88 38 \; r-slider-dance 0.1 \; r-slider-read 0.1 \; r-slider-text
0.1 \;;
#X msg 275 41 \; pd dsp 1;
#X connect 0 0 1 0;
#X connect 0 0 2 0;
#X restore 456 559 pd init-program;
#N canvas 237 29 629 426 play-poema1 0;
#X obj 32 12 r s-poema1;
#N canvas 376 136 541 300 play-reading-poema1 0;
#X obj 125 102 r s-read12;
#X obj 318 105 r s-read13;
#X obj 24 36 inlet;
#X obj 38 183 outlet~;
#X obj 104 27 r s-read11;
#X obj 320 138 play-reading-read13 11500;
#X obj 26 66 play-reading-read11 13000;
#X obj 126 135 play-reading-read12 12000;
#X connect 0 0 7 0;
#X connect 1 0 5 0;
#X connect 2 0 6 0;
#X connect 4 0 6 0;
#X connect 5 0 3 0;
#X connect 6 0 3 0;
#X connect 7 0 3 0;
#X restore 224 92 pd play-reading-poema1;
#X obj 225 13 r s-poema1;
#N canvas 388 232 506 387 play-soundscape1 0;
#X obj 37 171 readsf~ 2;
#X obj 32 -68 inlet;
#X obj 31 228 outlet~;
#X obj 110 229 outlet~;
#X msg 77 135 open \$1;
#X obj 146 38 bng 15 250 50 0 empty empty empty 17 7 0 10 -262144 -1
-1;
#X msg 87 9 clear;
#X obj 71 37 urn 4;
#X obj 76 73 + 1;
#X obj 76 106 makefilename ./1-oceanos/%d-oceanos.wav;
#X floatatom 184 63 5 0 0 0 - - -;
#X obj 34 -37 t f f;
#X obj 78 -15 sel 1;
#X msg 140 189 1;
#X connect 0 0 2 0;
#X connect 0 1 3 0;
#X connect 0 2 13 0;
#X connect 1 0 11 0;
#X connect 4 0 0 0;
#X connect 5 0 6 0;
#X connect 6 0 7 0;
#X connect 7 0 8 0;
#X connect 7 1 5 0;
#X connect 8 0 9 0;
#X connect 8 0 10 0;
#X connect 9 0 4 0;
#X connect 11 0 0 0;
#X connect 11 1 12 0;
#X connect 12 0 7 0;
#X connect 13 0 11 0;
#X restore 31 44 pd play-soundscape1;
#X obj 32 109 throw~ left-sound-poema1;
#X obj 162 172 throw~ right-sound-poema1;
#X obj 32 80 *~ 0.3;
#X obj 164 147 *~ 0.3;
#X connect 0 0 3 0;
#X connect 1 0 4 0;
#X connect 1 0 5 0;
#X connect 2 0 1 0;
#X connect 3 0 6 0;
#X connect 3 1 7 0;
#X connect 6 0 4 0;
#X connect 7 0 5 0;
#X restore 477 165 pd play-poema1;
#N canvas 237 29 629 426 play-poema2 0;
#X obj 30 -3 r s-poema2;
#X obj 217 -2 r s-poema2;
#N canvas 447 136 526 314 play-reading-poema2 0;
#X obj 24 36 inlet;
#X obj 38 183 outlet~;
#X obj 125 102 r s-read22;
#X obj 318 105 r s-read23;
#X obj 104 27 r s-read21;
#X obj 26 66 play-reading-read21 11250;
#X obj 126 135 play-reading-read22 12100;
#X obj 320 138 play-reading-read23 13450;
#X connect 0 0 5 0;
#X connect 2 0 6 0;
#X connect 3 0 7 0;
#X connect 4 0 5 0;
#X connect 5 0 1 0;
#X connect 6 0 1 0;
#X connect 7 0 1 0;
#X restore 216 92 pd play-reading-poema2;
#N canvas 30 117 690 382 play-soundscape2 0;
#X obj 53 239 readsf~ 2;
#X obj 35 12 inlet;
#X obj 38 306 outlet~;
#X obj 117 307 outlet~;
#X obj 198 96 bng 15 250 50 0 empty empty empty 17 7 0 10 -262144 -1
-1;
#X msg 128 68 clear;
#X obj 73 122 + 1;
#X msg 71 187 open \$1;
#X obj 72 69 sel 1;
#X obj 37 43 t f f;
#X floatatom 139 128 5 0 0 0 - - -;
#X obj 72 154 makefilename ./2-ventanias/%d-ventanias.wav;
#X obj 72 99 urn 4;
#X msg 141 253 1;
#X connect 0 0 2 0;
#X connect 0 1 3 0;
#X connect 0 2 13 0;
#X connect 1 0 9 0;
#X connect 4 0 5 0;
#X connect 5 0 12 0;
#X connect 6 0 10 0;
#X connect 6 0 11 0;
#X connect 7 0 0 0;
#X connect 8 0 12 0;
#X connect 9 0 0 0;
#X connect 9 1 8 0;
#X connect 11 0 7 0;
#X connect 12 0 6 0;
#X connect 12 1 4 0;
#X connect 13 0 9 0;
#X restore 30 35 pd play-soundscape2;
#X obj 26 112 throw~ left-sound-poema2;
#X obj 215 112 throw~ right-sound-poema2;
#X obj 27 70 *~ 0.5;
#X obj 160 70 *~ 0.5;
#X connect 0 0 3 0;
#X connect 1 0 2 0;
#X connect 2 0 4 0;
#X connect 2 0 5 0;
#X connect 3 0 6 0;
#X connect 3 1 7 0;
#X connect 6 0 4 0;
#X connect 7 0 5 0;
#X restore 476 188 pd play-poema2;
#N canvas 237 29 629 426 play-poema3 0;
#X obj 31 6 r s-poema3;
#X obj 226 3 r s-poema3;
#N canvas 344 137 478 299 play-reading-poema3 0;
#X obj 24 36 inlet;
#X obj 38 183 outlet~;
#X obj 104 27 r s-read31;
#X obj 318 105 r s-read33;
#X obj 125 102 r s-read32;
#X obj 320 138 play-reading-read33 12450;
#X obj 26 66 play-reading-read31 12250;
#X obj 126 135 play-reading-read32 14000;
#X connect 0 0 6 0;
#X connect 2 0 6 0;
#X connect 3 0 5 0;
#X connect 4 0 7 0;
#X connect 5 0 1 0;
#X connect 6 0 1 0;
#X connect 7 0 1 0;
#X restore 227 88 pd play-reading-poema3;
#N canvas 501 236 663 300 play-soundscape3 0;
#X obj 30 47 t f b;
#X obj 62 169 readsf~ 2;
#X obj 28 10 inlet;
#X obj 56 226 outlet~;
#X obj 135 227 outlet~;
#X msg 112 136 open \$1;
#X obj 237 26 bng 15 250 50 0 empty empty empty 17 7 0 10 -262144 -1
-1;
#X msg 107 22 clear;
#X obj 112 70 + 1;
#X obj 113 94 makefilename ./3-cordilheiras/%d-cordilheiras.wav;
#X obj 109 48 urn 4;
#X msg 140 189 1;
#X connect 0 0 1 0;
#X connect 0 1 10 0;
#X connect 1 0 3 0;
#X connect 1 1 4 0;
#X connect 1 2 11 0;
#X connect 2 0 0 0;
#X connect 5 0 1 0;
#X connect 6 0 7 0;
#X connect 7 0 10 0;
#X connect 8 0 9 0;
#X connect 9 0 5 0;
#X connect 10 0 8 0;
#X connect 10 1 6 0;
#X connect 11 0 0 0;
#X restore 30 35 pd play-soundscape3;
#X obj 34 108 throw~ left-sound-poema3;
#X obj 153 136 throw~ right-sound-poema3;
#X obj 33 69 *~ 0.5;
#X obj 158 67 *~ 0.5;
#X connect 0 0 3 0;
#X connect 1 0 2 0;
#X connect 2 0 4 0;
#X connect 2 0 5 0;
#X connect 3 0 6 0;
#X connect 3 1 7 0;
#X connect 6 0 4 0;
#X connect 7 0 5 0;
#X restore 477 212 pd play-poema3;
#N canvas 237 29 629 426 play-poema4 0;
#X obj 30 0 r s-poema4;
#X obj 221 3 r s-poema4;
#N canvas 447 134 499 357 play-soundscape4 0;
#X obj 22 -9 t f b;
#X obj 35 140 readsf~ 2;
#X obj 20 -40 inlet;
#X obj 29 197 outlet~;
#X obj 108 198 outlet~;
#X obj 112 62 bng 15 250 50 0 empty empty empty 17 7 0 10 -262144 -1
-1;
#X msg 82 4 clear;
#X obj 72 62 + 1;
#X msg 68 110 open \$1;
#X obj 68 85 makefilename ./4-magmas/%d-magmas.wav;
#X obj 80 31 urn 4;
#X msg 140 156 1;
#X connect 0 0 1 0;
#X connect 0 1 10 0;
#X connect 1 0 3 0;
#X connect 1 1 4 0;
#X connect 1 2 11 0;
#X connect 2 0 0 0;
#X connect 5 0 6 0;
#X connect 6 0 10 0;
#X connect 7 0 9 0;
#X connect 8 0 1 0;
#X connect 9 0 8 0;
#X connect 10 0 7 0;
#X connect 10 1 5 0;
#X connect 11 0 0 0;
#X restore 30 35 pd play-soundscape4;
#N canvas 344 137 575 337 play-reading-poema4 0;
#X obj 24 36 inlet;
#X obj 38 183 outlet~;
#X obj 104 27 r s-read41;
#X obj 125 102 r s-read42;
#X obj 318 105 r s-read43;
#X obj 26 66 play-reading-read41 11300;
#X obj 126 135 play-reading-read42 12000;
#X obj 320 138 play-reading-read43 13000;
#X connect 0 0 5 0;
#X connect 2 0 5 0;
#X connect 3 0 6 0;
#X connect 4 0 7 0;
#X connect 5 0 1 0;
#X connect 6 0 1 0;
#X connect 7 0 1 0;
#X restore 221 84 pd play-reading-poema4;
#X obj 32 101 throw~ left-sound-poema4;
#X obj 160 137 throw~ right-sound-poema4;
#X obj 32 63 *~ 0.5;
#X obj 160 61 *~ 0.5;
#X connect 0 0 2 0;
#X connect 1 0 3 0;
#X connect 2 0 6 0;
#X connect 2 1 7 0;
#X connect 3 0 5 0;
#X connect 3 0 4 0;
#X connect 6 0 4 0;
#X connect 7 0 5 0;
#X restore 477 233 pd play-poema4;
#N canvas 31 103 546 330 mixing-sounds 0;
#X obj 49 204 freeverb~, f 35;
#X obj 323 143 loadbang;
#X obj 49 260 dac~, f 35;
#X obj 46 49 catch~ left-sound-poema1;
#X obj 291 38 catch~ right-sound-poema1;
#X obj 49 69 catch~ left-sound-poema2;
#X obj 291 76 catch~ right-sound-poema2;
#X obj 48 90 catch~ left-sound-poema3;
#X obj 292 98 catch~ right-sound-poema3;
#X obj 48 118 catch~ left-sound-poema4;
#X obj 291 118 catch~ right-sound-poema4;
#X msg 322 185 roomsize 0.4;
#X msg 391 212 wet 0.5;
#X msg 425 178 width \$1;
#X obj 424 149 r r-slider-read;
#X obj 419 252 expr 1- $f1;
#X msg 419 281 dry \$1;
#X connect 0 0 2 0;
#X connect 0 1 2 1;
#X connect 1 0 11 0;
#X connect 1 0 12 0;
#X connect 3 0 0 0;
#X connect 3 0 2 0;
#X connect 4 0 0 1;
#X connect 4 0 2 1;
#X connect 5 0 0 0;
#X connect 5 0 2 0;
#X connect 6 0 0 1;
#X connect 6 0 2 1;
#X connect 7 0 0 0;
#X connect 7 0 2 0;
#X connect 8 0 0 1;
#X connect 8 0 2 1;
#X connect 9 0 0 0;
#X connect 9 0 2 0;
#X connect 10 0 0 1;
#X connect 10 0 2 1;
#X connect 11 0 0 0;
#X connect 12 0 0 0;
#X connect 13 0 0 0;
#X connect 14 0 13 0;
#X connect 14 0 15 0;
#X connect 15 0 16 0;
#X connect 16 0 0 0;
#X restore 477 254 pd mixing-sounds;
#X obj 1102 580 markov-poemas poema 20000;
#X connect 0 0 67 0;
#X connect 2 0 77 0;
#X connect 53 0 52 0;
#X connect 54 0 60 0;
#X connect 55 0 52 0;
#X connect 56 0 53 0;
#X connect 56 0 61 0;
#X connect 57 0 55 0;
#X connect 58 0 57 1;
#X connect 59 0 58 1;
#X connect 60 0 57 0;
#X connect 60 1 58 0;
#X connect 61 0 54 0;
#X connect 62 0 52 0;
#X connect 63 0 62 0;
#X connect 65 0 64 0;
#X connect 66 0 52 0;
#X connect 77 0 51 0;
#X coords 0 -1 1 1 440 500 1 625 85;
