#N canvas 311 44 899 590 12;
#X obj -77 -43 tgl 15 0 empty empty empty 17 7 0 10 -262144 -1 -1 0
1;
#X obj -75 8 f 0;
#X obj -76 64 mod 5;
#X obj -75 29 + 1;
#X obj -74 88 sel 0 1 2 3 4;
#X obj -41 649 outlet;
#X obj -76 -14 metro 5000;
#X obj 38 -65 loadbang;
#X obj -77 -71 inlet;
#X obj 37 -34 float \$1;
#X obj 481 278 + 1;
#X obj 2 228 + 1;
#X obj 2 150 f 0;
#X obj 2 169 + 1;
#X obj 2 194 mod 3;
#X obj -84 218 + 1;
#X obj -84 140 f 0;
#X obj -84 159 + 1;
#X obj -84 184 mod 3;
#X obj -57 400 + 1;
#X obj -57 322 f 0;
#X obj -57 341 + 1;
#X obj -57 366 mod 3;
#X obj -4 554 + 1;
#X obj -4 476 f 0;
#X obj -4 495 + 1;
#X obj -4 520 mod 3;
#X obj -97 265 makefilename ./1-oceanos/read12/%d-read121.wav;
#X obj -16 309 makefilename ./1-oceanos/read12/%d-read122.wav;
#X obj -55 432 makefilename ./1-oceanos/read12/%d-read123.wav;
#X obj -29 582 makefilename ./1-oceanos/read12/%d-read124.wav;
#X obj 487 305 makefilename ./1-oceanos/read12/%d-read125.wav;
#X obj 551 252 bng 15 250 50 0 empty empty empty 17 7 0 10 -262144
-1 -1;
#X msg 527 219 clear;
#X obj 481 246 urn 3;
#X connect 0 0 6 0;
#X connect 1 0 3 0;
#X connect 2 0 1 1;
#X connect 2 0 4 0;
#X connect 3 0 2 0;
#X connect 4 0 16 0;
#X connect 4 1 12 0;
#X connect 4 2 20 0;
#X connect 4 3 24 0;
#X connect 4 4 34 0;
#X connect 6 0 1 0;
#X connect 7 0 9 0;
#X connect 8 0 0 0;
#X connect 9 0 6 1;
#X connect 10 0 31 0;
#X connect 11 0 28 0;
#X connect 12 0 13 0;
#X connect 13 0 14 0;
#X connect 14 0 12 1;
#X connect 14 0 11 0;
#X connect 15 0 27 0;
#X connect 16 0 17 0;
#X connect 17 0 18 0;
#X connect 18 0 16 1;
#X connect 18 0 15 0;
#X connect 19 0 29 0;
#X connect 20 0 21 0;
#X connect 21 0 22 0;
#X connect 22 0 20 1;
#X connect 22 0 19 0;
#X connect 23 0 30 0;
#X connect 24 0 25 0;
#X connect 25 0 26 0;
#X connect 26 0 24 1;
#X connect 26 0 23 0;
#X connect 27 0 5 0;
#X connect 28 0 5 0;
#X connect 29 0 5 0;
#X connect 30 0 5 0;
#X connect 31 0 5 0;
#X connect 32 0 33 0;
#X connect 33 0 34 0;
#X connect 34 0 10 0;
#X connect 34 1 32 0;
