#N canvas 308 42 899 590 12;
#X obj -89 -54 tgl 15 0 empty empty empty 17 7 0 10 -262144 -1 -1 1
1;
#X obj -87 -3 f 0;
#X obj -88 53 mod 5;
#X obj -87 18 + 1;
#X obj -86 77 sel 0 1 2 3 4;
#X obj -97 231 + 1;
#X obj -17 236 + 1;
#X obj -55 397 + 1;
#X obj 18 537 + 1;
#X obj 365 287 + 1;
#X obj -41 649 outlet;
#X obj -88 -25 metro 5000;
#X obj 62 5 loadbang;
#X obj -89 -82 inlet;
#X obj 61 36 float \$1;
#X obj -17 148 f 0;
#X obj -17 167 + 1;
#X obj -17 192 mod 3;
#X obj -95 132 f 0;
#X obj -95 151 + 1;
#X obj -95 176 mod 3;
#X obj -56 321 f 0;
#X obj -56 340 + 1;
#X obj -56 365 mod 3;
#X obj 18 471 f 0;
#X obj 18 490 + 1;
#X obj 18 515 mod 3;
#X obj -97 265 makefilename ./1-oceanos/read13/%d-read131.wav;
#X obj -16 309 makefilename ./1-oceanos/read13/%d-read132.wav;
#X obj -55 432 makefilename ./1-oceanos/read13/%d-read133.wav;
#X obj -29 582 makefilename ./1-oceanos/read13/%d-read134.wav;
#X obj 366 315 makefilename ./1-oceanos/read13/%d-read135.wav;
#X obj 434 254 bng 15 250 50 0 empty empty empty 17 7 0 10 -262144
-1 -1;
#X msg 410 221 clear;
#X obj 364 248 urn 3;
#X connect 0 0 11 0;
#X connect 1 0 3 0;
#X connect 2 0 1 1;
#X connect 2 0 4 0;
#X connect 3 0 2 0;
#X connect 4 0 18 0;
#X connect 4 1 15 0;
#X connect 4 2 21 0;
#X connect 4 3 24 0;
#X connect 4 4 34 0;
#X connect 5 0 27 0;
#X connect 6 0 28 0;
#X connect 7 0 29 0;
#X connect 8 0 30 0;
#X connect 9 0 31 0;
#X connect 11 0 1 0;
#X connect 12 0 14 0;
#X connect 13 0 0 0;
#X connect 14 0 11 1;
#X connect 15 0 16 0;
#X connect 16 0 17 0;
#X connect 17 0 15 1;
#X connect 17 0 6 0;
#X connect 18 0 19 0;
#X connect 19 0 20 0;
#X connect 20 0 18 1;
#X connect 20 0 5 0;
#X connect 21 0 22 0;
#X connect 22 0 23 0;
#X connect 23 0 21 1;
#X connect 23 0 7 0;
#X connect 24 0 25 0;
#X connect 25 0 26 0;
#X connect 26 0 24 1;
#X connect 26 0 8 0;
#X connect 27 0 10 0;
#X connect 28 0 10 0;
#X connect 29 0 10 0;
#X connect 30 0 10 0;
#X connect 31 0 10 0;
#X connect 32 0 33 0;
#X connect 33 0 34 0;
#X connect 34 0 9 0;
#X connect 34 1 32 0;
