#N canvas 69 58 1003 525 12;
#X text 213 134 reset;
#X obj 63 311 outlet;
#X obj 58 40 inlet;
#X obj 63 271 + 0;
#X obj 213 51 loadbang;
#X obj 60 98 metro;
#X obj 60 73 tgl 15 0 empty empty empty 17 7 0 10 -262144 -1 -1 0 1
;
#X msg 227 84 1;
#X obj 334 33 inlet;
#X obj 334 101 expr $f1*($f3-$f2)+$f2;
#X obj 410 23 loadbang;
#X floatatom 330 145 10 0 0 0 - - -;
#X obj 60 208 + 1;
#X obj 105 232 bng 15 250 50 0 empty empty empty 17 7 0 10 -262144
-1 -1;
#X msg 115 167 clear;
#X floatatom 61 238 5 0 0 0 - - -;
#X obj 57 168 urn 3;
#X obj 212 156 float \$1;
#X obj 94 71 float \$2;
#X obj 408 76 float \$2;
#X obj 483 75 float \$3;
#X connect 2 0 6 0;
#X connect 3 0 1 0;
#X connect 4 0 7 0;
#X connect 4 0 17 0;
#X connect 4 0 18 0;
#X connect 5 0 16 0;
#X connect 6 0 5 0;
#X connect 8 0 9 0;
#X connect 9 0 5 1;
#X connect 9 0 11 0;
#X connect 10 0 19 0;
#X connect 10 0 20 0;
#X connect 12 0 15 0;
#X connect 13 0 14 0;
#X connect 14 0 16 0;
#X connect 15 0 3 0;
#X connect 16 0 12 0;
#X connect 16 1 13 0;
#X connect 17 0 3 1;
#X connect 18 0 5 1;
#X connect 19 0 9 1;
#X connect 20 0 9 2;
