#N canvas 126 104 1003 525 12;
#X obj 49 25 inlet;
#X obj 48 83 metro 1000;
#X obj 51 229 outlet;
#X obj 164 73 float \$2;
#X obj 162 36 loadbang;
#X obj 49 55 tgl 15 0 empty empty empty 17 7 0 10 -262144 -1 -1 1 1
;
#X obj 252 72 s off-all;
#X obj 49 121 urn 4;
#X obj 52 161 + 1;
#X obj 97 185 bng 15 250 50 0 empty empty empty 17 7 0 10 -262144 -1
-1;
#X msg 107 120 clear;
#X floatatom 53 191 5 0 0 0 - - -;
#X connect 0 0 5 0;
#X connect 1 0 7 0;
#X connect 3 0 1 1;
#X connect 4 0 3 0;
#X connect 5 0 1 0;
#X connect 5 0 6 0;
#X connect 7 0 8 0;
#X connect 7 1 9 0;
#X connect 8 0 11 0;
#X connect 9 0 10 0;
#X connect 10 0 7 0;
#X connect 11 0 2 0;
