#N canvas 108 77 496 613 12;
#X obj 17 54 unpackOSC;
#X msg 17 6 status;
#N canvas 830 203 450 300 verify-conexion 0;
#X floatatom 231 175 3 0 0 0 - - -;
#X floatatom 258 175 3 0 0 0 - - -;
#X floatatom 285 175 3 0 0 0 - - -;
#X floatatom 312 175 3 0 0 0 - - -;
#X floatatom 339 176 5 0 0 0 - - -;
#X obj 231 149 unpack 0 0 0 0 0;
#X floatatom 110 96 9 0 0 0 - - -;
#X obj 291 122 tgl 15 0 empty empty empty 17 7 0 10 -4034 -1 -1 0 1
;
#X floatatom 170 122 9 0 0 0 - - -;
#X text 3 96 bytes received:;
#X text 18 120 total bytes received:;
#X text 188 174 from:;
#X obj 110 63 route received total from multicast;
#X obj 111 27 inlet;
#X connect 5 0 0 0;
#X connect 5 1 1 0;
#X connect 5 2 2 0;
#X connect 5 3 3 0;
#X connect 5 4 4 0;
#X connect 12 0 6 0;
#X connect 12 1 8 0;
#X connect 12 2 5 0;
#X connect 12 3 7 0;
#X connect 13 0 12 0;
#X restore 126 55 pd verify-conexion;
#X msg 85 3 port 9998;
#X obj 17 30 udpreceive 54321;
#X obj 16 79 desktop-jardim;
#X connect 0 0 5 0;
#X connect 1 0 4 0;
#X connect 3 0 4 0;
#X connect 4 0 0 0;
#X connect 4 1 2 0;
