#N canvas 64 160 668 456 12;
#X obj 62 -6 inlet;
#X obj 62 22 sel 1 2 3 4 5 6 7 8 9 10 11 12;
#X floatatom 129 -1 5 0 0 0 - - -;
#X msg 38 81 \; r-read11 1 \; r-read12 0 \; r-read13 0 \;;
#X msg 151 84 \; r-read11 0 \; r-read12 1 \; r-read13 0 \;;
#X msg 392 114 \; r-read11 0 \; r-read12 0 \; r-read13 1 \;;
#X msg 39 165 \; r-read21 1 \; r-read22 0 \; r-read23 0 \;;
#X msg 152 168 \; r-read21 0 \; r-read22 1 \; r-read23 0 \;;
#X msg 391 195 \; r-read21 0 \; r-read22 0 \; r-read23 1 \;;
#X msg 76 246 \; r-read31 1 \; r-read32 0 \; r-read33 0 \;;
#X msg 189 249 \; r-read31 0 \; r-read32 1 \; r-read33 0 \;;
#X msg 391 269 \; r-read31 0 \; r-read32 0 \; r-read33 1 \;;
#X msg 161 349 \; r-read41 1 \; r-read42 0 \; r-read43 0 \;;
#X msg 274 352 \; r-read41 0 \; r-read42 1 \; r-read43 0 \;;
#X msg 391 355 \; r-read41 0 \; r-read42 0 \; r-read43 1 \;;
#X obj 461 34 outlet;
#N canvas 231 35 549 367 osc-read 1;
#X obj 274 158 packOSC;
#X obj 146 255 outlet;
#X obj 145 142 packOSC;
#X obj 8 153 packOSC;
#X obj -121 152 packOSC;
#X obj 8 20 r s-read21;
#X obj 7 67 r s-read22;
#X obj 7 109 r s-read23;
#X obj 145 6 r s-read31;
#X obj 144 53 r s-read32;
#X obj -123 63 r s-read12;
#X obj -123 105 r s-read13;
#X obj 275 10 r s-read41;
#X obj 274 57 r s-read42;
#X obj 274 99 r s-read43;
#X obj -122 16 r s-read11;
#X msg -121 37 send /read 11;
#X msg -122 84 send /read 12;
#X msg -122 126 send /read 13;
#X msg 9 41 send /read 21;
#X msg 8 88 send /read 22;
#X msg 8 130 send /read 23;
#X msg 146 27 send /read 31;
#X msg 145 74 send /read 32;
#X msg 145 116 send /read 33;
#X obj 144 95 r s-read33;
#X msg 276 31 send /read 41;
#X msg 275 78 send /read 42;
#X msg 275 120 send /read 43;
#X connect 0 0 1 0;
#X connect 2 0 1 0;
#X connect 3 0 1 0;
#X connect 4 0 1 0;
#X connect 5 0 19 0;
#X connect 6 0 20 0;
#X connect 7 0 21 0;
#X connect 8 0 22 0;
#X connect 9 0 23 0;
#X connect 10 0 17 0;
#X connect 11 0 18 0;
#X connect 12 0 26 0;
#X connect 13 0 27 0;
#X connect 14 0 28 0;
#X connect 15 0 16 0;
#X connect 16 0 4 0;
#X connect 17 0 4 0;
#X connect 18 0 4 0;
#X connect 19 0 3 0;
#X connect 20 0 3 0;
#X connect 21 0 3 0;
#X connect 22 0 2 0;
#X connect 23 0 2 0;
#X connect 24 0 2 0;
#X connect 25 0 24 0;
#X connect 26 0 0 0;
#X connect 27 0 0 0;
#X connect 28 0 0 0;
#X restore 462 5 pd osc-read;
#X connect 0 0 1 0;
#X connect 0 0 2 0;
#X connect 1 0 3 0;
#X connect 1 1 4 0;
#X connect 1 2 5 0;
#X connect 1 3 6 0;
#X connect 1 4 7 0;
#X connect 1 5 8 0;
#X connect 1 6 9 0;
#X connect 1 7 10 0;
#X connect 1 8 11 0;
#X connect 1 9 12 0;
#X connect 1 10 13 0;
#X connect 1 11 14 0;
#X connect 16 0 15 0;
