#N canvas 0 25 668 456 12;
#X obj 62 -6 inlet;
#X obj 62 22 sel 1 2 3 4 5 6 7 8 9 10 11 12;
#X floatatom 129 -1 5 0 0 0 - - -;
#X msg 38 81 \; r-texto11 1 \; r-texto12 0 \; r-texto13 0 \;;
#X msg 151 84 \; r-texto11 0 \; r-texto12 1 \; r-texto13 0 \;;
#X msg 366 90 \; r-texto11 0 \; r-texto12 0 \; r-texto13 1 \;;
#X msg 39 165 \; r-texto21 1 \; r-texto22 0 \; r-texto23 0 \;;
#X msg 152 168 \; r-texto21 0 \; r-texto22 1 \; r-texto23 0 \;;
#X msg 373 162 \; r-texto21 0 \; r-texto22 0 \; r-texto23 1 \;;
#X msg 76 246 \; r-texto31 1 \; r-texto32 0 \; r-texto33 0 \;;
#X msg 189 249 \; r-texto31 0 \; r-texto32 1 \; r-texto33 0 \;;
#X msg 374 248 \; r-texto31 0 \; r-texto32 0 \; r-texto33 1 \;;
#X msg 161 349 \; r-texto41 1 \; r-texto42 0 \; r-texto43 0 \;;
#X msg 274 352 \; r-texto41 0 \; r-texto42 1 \; r-texto43 0 \;;
#X msg 380 346 \; r-texto41 0 \; r-texto42 0 \; r-texto43 1 \;;
#N canvas 231 35 549 367 osc-texto 1;
#X obj 274 188 packOSC;
#X obj 275 10 r s-texto41;
#X obj 274 57 r s-texto42;
#X obj 274 99 r s-texto43;
#X obj 146 255 outlet;
#X obj 144 184 packOSC;
#X obj 145 6 r s-texto31;
#X obj 144 53 r s-texto32;
#X obj 7 198 packOSC;
#X obj -123 194 packOSC;
#X obj 8 20 r s-texto21;
#X obj 7 67 r s-texto22;
#X obj 7 109 r s-texto23;
#X obj -122 16 r s-texto11;
#X obj -123 63 r s-texto12;
#X obj -123 105 r s-texto13;
#X msg -121 37 send /text 11;
#X msg -122 84 send /text 12;
#X msg -122 126 send /text 13;
#X msg 9 41 send /text 21;
#X msg 8 88 send /text 22;
#X msg 8 130 send /text 23;
#X msg 146 27 send /text 31;
#X msg 145 74 send /text 32;
#X msg 145 116 send /text 33;
#X obj 144 95 r s-texto33;
#X msg 276 31 send /text 41;
#X msg 275 78 send /text 42;
#X msg 275 120 send /text 43;
#X connect 0 0 4 0;
#X connect 1 0 26 0;
#X connect 2 0 27 0;
#X connect 3 0 28 0;
#X connect 5 0 4 0;
#X connect 6 0 22 0;
#X connect 7 0 23 0;
#X connect 8 0 4 0;
#X connect 9 0 4 0;
#X connect 10 0 19 0;
#X connect 11 0 20 0;
#X connect 12 0 21 0;
#X connect 13 0 16 0;
#X connect 14 0 17 0;
#X connect 15 0 18 0;
#X connect 16 0 9 0;
#X connect 17 0 9 0;
#X connect 18 0 9 0;
#X connect 19 0 8 0;
#X connect 20 0 8 0;
#X connect 21 0 8 0;
#X connect 22 0 5 0;
#X connect 23 0 5 0;
#X connect 24 0 5 0;
#X connect 25 0 24 0;
#X connect 26 0 0 0;
#X connect 27 0 0 0;
#X connect 28 0 0 0;
#X restore 462 5 pd osc-texto;
#X obj 461 34 outlet;
#X connect 0 0 1 0;
#X connect 0 0 2 0;
#X connect 1 0 3 0;
#X connect 1 1 4 0;
#X connect 1 2 5 0;
#X connect 1 3 6 0;
#X connect 1 4 7 0;
#X connect 1 5 8 0;
#X connect 1 6 9 0;
#X connect 1 7 10 0;
#X connect 1 8 11 0;
#X connect 1 9 12 0;
#X connect 1 10 13 0;
#X connect 1 11 14 0;
#X connect 15 0 16 0;
