#N canvas 101 67 1003 525 12;
#X obj 69 252 bng 15 250 50 0 empty empty empty 20 8 0 8 -262144 -1
-1;
#X obj 66 337 bng 15 250 50 0 empty empty empty 20 8 0 8 -262144 -1
-1;
#X obj 147 336 bng 15 250 50 0 empty empty empty 20 8 0 8 -262144 -1
-1;
#X msg 66 359 1;
#X msg 147 361 2;
#X obj 66 173 bng 20 250 50 0 empty empty empty 20 8 0 8 -262144 -1
-1;
#X obj 306 248 bng 15 250 50 0 empty empty empty 20 8 0 8 -262144 -1
-1;
#X obj 303 333 bng 15 250 50 0 empty empty empty 20 8 0 8 -262144 -1
-1;
#X obj 385 335 bng 15 250 50 0 empty empty empty 20 8 0 8 -262144 -1
-1;
#X obj 548 252 bng 15 250 50 0 empty empty empty 20 8 0 8 -262144 -1
-1;
#X obj 548 337 bng 15 250 50 0 empty empty empty 20 8 0 8 -262144 -1
-1;
#X obj 628 336 bng 15 250 50 0 empty empty empty 20 8 0 8 -262144 -1
-1;
#X msg 548 360 1;
#X msg 628 361 2;
#X obj 66 199 f 1;
#X obj 69 280 random 100;
#X obj 68 309 moses 30;
#X obj 147 310 moses 60;
#X obj 306 275 random 100;
#X obj 306 305 moses 10;
#X obj 548 279 random 100;
#X floatatom 179 116 3 0 0 0 - - -;
#X text 289 59 reset;
#X text 49 152 STEP;
#X obj 107 115 r \$1state;
#X obj 66 387 s \$1state;
#X obj 303 389 s \$1state;
#X obj 547 393 s \$1state;
#X obj 385 306 moses 50;
#X obj 548 308 moses 60;
#X obj 628 308 moses 70;
#X obj 129 201 outlet;
#X msg 303 356 2;
#X msg 380 361 3;
#X obj 700 337 bng 15 250 50 0 empty empty empty 20 8 0 8 -262144 -1
-1;
#X msg 686 358 3;
#X msg 449 368 3;
#X msg 219 369 3;
#X obj 69 228 sel 1 2 3;
#X obj 64 42 inlet;
#X obj 145 153 float \$2;
#X obj 129 176 + 0;
#X obj 227 58 loadbang;
#X obj 64 98 metro;
#X obj 94 71 float \$3;
#X obj 64 73 tgl 15 0 empty empty empty 17 7 0 10 -262144 -1 -1 0 1
;
#X msg 227 84 1;
#X connect 0 0 15 0;
#X connect 1 0 3 0;
#X connect 2 0 4 0;
#X connect 3 0 25 0;
#X connect 4 0 25 0;
#X connect 5 0 14 0;
#X connect 6 0 18 0;
#X connect 7 0 32 0;
#X connect 8 0 33 0;
#X connect 9 0 20 0;
#X connect 10 0 12 0;
#X connect 11 0 13 0;
#X connect 12 0 27 0;
#X connect 13 0 27 0;
#X connect 14 0 38 0;
#X connect 15 0 16 0;
#X connect 16 0 1 0;
#X connect 16 1 17 0;
#X connect 17 0 2 0;
#X connect 17 1 37 0;
#X connect 18 0 19 0;
#X connect 19 0 7 0;
#X connect 19 1 28 0;
#X connect 20 0 29 0;
#X connect 24 0 14 1;
#X connect 24 0 21 0;
#X connect 24 0 41 0;
#X connect 28 0 8 0;
#X connect 28 1 36 0;
#X connect 29 0 10 0;
#X connect 29 1 30 0;
#X connect 30 0 11 0;
#X connect 30 1 34 0;
#X connect 32 0 26 0;
#X connect 33 0 26 0;
#X connect 34 0 35 0;
#X connect 35 0 27 0;
#X connect 36 0 26 0;
#X connect 37 0 25 0;
#X connect 38 0 0 0;
#X connect 38 1 6 0;
#X connect 38 2 9 0;
#X connect 39 0 45 0;
#X connect 40 0 41 1;
#X connect 41 0 31 0;
#X connect 42 0 46 0;
#X connect 42 0 44 0;
#X connect 42 0 40 0;
#X connect 43 0 5 0;
#X connect 44 0 43 1;
#X connect 45 0 43 0;
#X connect 46 0 25 0;
