#N canvas 126 104 1003 525 12;
#X obj 84 251 bng 15 250 50 0 empty empty empty 20 8 0 8 -262144 -1
-1;
#X obj 81 336 bng 15 250 50 0 empty empty empty 20 8 0 8 -262144 -1
-1;
#X obj 162 335 bng 15 250 50 0 empty empty empty 20 8 0 8 -262144 -1
-1;
#X msg 81 358 1;
#X msg 162 360 2;
#X obj 66 173 bng 20 250 50 0 empty empty empty 20 8 0 8 -262144 -1
-1;
#X obj 306 248 bng 15 250 50 0 empty empty empty 20 8 0 8 -262144 -1
-1;
#X obj 303 333 bng 15 250 50 0 empty empty empty 20 8 0 8 -262144 -1
-1;
#X obj 385 335 bng 15 250 50 0 empty empty empty 20 8 0 8 -262144 -1
-1;
#X obj 548 252 bng 15 250 50 0 empty empty empty 20 8 0 8 -262144 -1
-1;
#X obj 548 337 bng 15 250 50 0 empty empty empty 20 8 0 8 -262144 -1
-1;
#X obj 628 336 bng 15 250 50 0 empty empty empty 20 8 0 8 -262144 -1
-1;
#X msg 548 360 1;
#X msg 628 361 2;
#X obj 83 199 f 1;
#X obj 84 279 random 100;
#X obj 83 308 moses 30;
#X obj 162 309 moses 60;
#X obj 306 275 random 100;
#X obj 306 305 moses 10;
#X obj 548 279 random 100;
#X floatatom 179 150 3 0 0 0 - - -;
#X text 236 166 reset;
#X text 49 152 STEP;
#X obj 67 45 inlet;
#X obj 66 103 metro 1000;
#X obj 105 147 r \$1state;
#X obj 81 386 s \$1state;
#X obj 303 389 s \$1state;
#X obj 547 393 s \$1state;
#X msg 236 186 \; \$1state 1;
#X obj 793 255 bng 15 250 50 0 empty empty empty 20 8 0 8 -262144 -1
-1;
#X obj 793 340 bng 15 250 50 0 empty empty empty 20 8 0 8 -262144 -1
-1;
#X obj 866 339 bng 15 250 50 0 empty empty empty 20 8 0 8 -262144 -1
-1;
#X obj 926 343 bng 15 250 50 0 empty empty empty 20 8 0 8 -262144 -1
-1;
#X obj 793 282 random 100;
#X obj 792 396 s \$1state;
#X obj 85 224 sel 1 2 3 4;
#X obj 385 306 moses 50;
#X obj 548 308 moses 60;
#X obj 628 308 moses 70;
#X obj 121 190 outlet;
#X obj 182 93 float \$2;
#X obj 180 56 loadbang;
#X msg 303 356 2;
#X msg 380 361 3;
#X obj 967 348 bng 15 250 50 0 empty empty empty 20 8 0 8 -262144 -1
-1;
#X obj 934 309 moses 90;
#X msg 967 370 4;
#X msg 793 363 1;
#X msg 873 364 2;
#X msg 912 364 3;
#X obj 700 337 bng 15 250 50 0 empty empty empty 20 8 0 8 -262144 -1
-1;
#X obj 741 342 bng 15 250 50 0 empty empty empty 20 8 0 8 -262144 -1
-1;
#X obj 708 303 moses 90;
#X msg 741 364 4;
#X msg 686 358 3;
#X obj 463 347 bng 15 250 50 0 empty empty empty 20 8 0 8 -262144 -1
-1;
#X obj 504 352 bng 15 250 50 0 empty empty empty 20 8 0 8 -262144 -1
-1;
#X obj 471 313 moses 90;
#X msg 504 374 4;
#X msg 449 368 3;
#X obj 228 352 bng 15 250 50 0 empty empty empty 20 8 0 8 -262144 -1
-1;
#X obj 269 357 bng 15 250 50 0 empty empty empty 20 8 0 8 -262144 -1
-1;
#X obj 236 318 moses 90;
#X msg 269 379 4;
#X msg 214 373 3;
#X obj 793 311 moses 60;
#X obj 864 311 moses 70;
#X obj 67 75 tgl 15 0 empty empty empty 17 7 0 10 -262144 -1 -1 0 1
;
#X obj 271 95 s off-all;
#X connect 0 0 15 0;
#X connect 1 0 3 0;
#X connect 2 0 4 0;
#X connect 3 0 27 0;
#X connect 4 0 27 0;
#X connect 5 0 14 0;
#X connect 6 0 18 0;
#X connect 7 0 44 0;
#X connect 8 0 45 0;
#X connect 9 0 20 0;
#X connect 10 0 12 0;
#X connect 11 0 13 0;
#X connect 12 0 29 0;
#X connect 13 0 29 0;
#X connect 14 0 37 0;
#X connect 15 0 16 0;
#X connect 16 0 1 0;
#X connect 16 1 17 0;
#X connect 17 0 2 0;
#X connect 17 1 64 0;
#X connect 18 0 19 0;
#X connect 19 0 7 0;
#X connect 19 1 38 0;
#X connect 20 0 39 0;
#X connect 24 0 69 0;
#X connect 25 0 5 0;
#X connect 26 0 14 1;
#X connect 26 0 21 0;
#X connect 26 0 41 0;
#X connect 31 0 35 0;
#X connect 32 0 49 0;
#X connect 33 0 50 0;
#X connect 34 0 51 0;
#X connect 35 0 67 0;
#X connect 37 0 0 0;
#X connect 37 1 6 0;
#X connect 37 2 9 0;
#X connect 37 3 31 0;
#X connect 38 0 8 0;
#X connect 38 1 59 0;
#X connect 39 0 10 0;
#X connect 39 1 40 0;
#X connect 40 0 11 0;
#X connect 40 1 54 0;
#X connect 42 0 25 1;
#X connect 43 0 42 0;
#X connect 44 0 28 0;
#X connect 45 0 28 0;
#X connect 46 0 48 0;
#X connect 47 0 34 0;
#X connect 47 1 46 0;
#X connect 48 0 36 0;
#X connect 49 0 36 0;
#X connect 50 0 36 0;
#X connect 51 0 36 0;
#X connect 52 0 56 0;
#X connect 53 0 55 0;
#X connect 54 0 52 0;
#X connect 54 1 53 0;
#X connect 55 0 29 0;
#X connect 56 0 29 0;
#X connect 57 0 61 0;
#X connect 58 0 60 0;
#X connect 59 0 57 0;
#X connect 59 1 58 0;
#X connect 60 0 28 0;
#X connect 61 0 28 0;
#X connect 62 0 66 0;
#X connect 63 0 65 0;
#X connect 64 0 62 0;
#X connect 64 1 63 0;
#X connect 65 0 27 0;
#X connect 66 0 27 0;
#X connect 67 0 32 0;
#X connect 67 1 68 0;
#X connect 68 0 33 0;
#X connect 68 1 47 0;
#X connect 69 0 25 0;
#X connect 69 0 70 0;
